<mxfile host="app.diagrams.net" agent="Mozilla/5.0 (Windows NT 10.0; Win64; x64) AppleWebKit/537.36 (KHTML, like Gecko) Chrome/131.0.0.0 Safari/537.36" version="24.8.6">
  <diagram id="R2lEEEUBdFMjLlhIrx00" name="Page-1">
    <mxGraphModel dx="522" dy="588" grid="1" gridSize="10" guides="1" tooltips="1" connect="1" arrows="1" fold="1" page="1" pageScale="1" pageWidth="850" pageHeight="1100" math="0" shadow="0" extFonts="Permanent Marker^https://fonts.googleapis.com/css?family=Permanent+Marker">
      <root>
        <mxCell id="0" />
        <mxCell id="1" parent="0" />
        <mxCell id="_YYLNtYZFIDilhd8sJEM-9" style="edgeStyle=none;curved=1;rounded=0;orthogonalLoop=1;jettySize=auto;html=1;entryX=0.5;entryY=0;entryDx=0;entryDy=0;fontSize=12;startSize=8;endSize=8;" edge="1" parent="1" source="_YYLNtYZFIDilhd8sJEM-2" target="_YYLNtYZFIDilhd8sJEM-3">
          <mxGeometry relative="1" as="geometry" />
        </mxCell>
        <mxCell id="_YYLNtYZFIDilhd8sJEM-2" value="&lt;font style=&quot;vertical-align: inherit;&quot;&gt;&lt;font style=&quot;vertical-align: inherit;&quot;&gt;開始&lt;/font&gt;&lt;/font&gt;" style="rounded=1;whiteSpace=wrap;html=1;" vertex="1" parent="1">
          <mxGeometry x="170" y="30" width="130" height="30" as="geometry" />
        </mxCell>
        <mxCell id="_YYLNtYZFIDilhd8sJEM-51" value="" style="edgeStyle=none;curved=1;rounded=0;orthogonalLoop=1;jettySize=auto;html=1;fontSize=12;startSize=8;endSize=8;entryX=0.5;entryY=0;entryDx=0;entryDy=0;" edge="1" parent="1" source="_YYLNtYZFIDilhd8sJEM-3" target="_YYLNtYZFIDilhd8sJEM-11">
          <mxGeometry relative="1" as="geometry" />
        </mxCell>
        <mxCell id="_YYLNtYZFIDilhd8sJEM-3" value="&lt;font style=&quot;vertical-align: inherit;&quot;&gt;&lt;font style=&quot;vertical-align: inherit;&quot;&gt;具材として次の野菜を用意&lt;/font&gt;&lt;/font&gt;" style="rounded=0;whiteSpace=wrap;html=1;" vertex="1" parent="1">
          <mxGeometry x="155" y="80" width="160" height="31" as="geometry" />
        </mxCell>
        <mxCell id="_YYLNtYZFIDilhd8sJEM-63" value="" style="edgeStyle=orthogonalEdgeStyle;rounded=0;orthogonalLoop=1;jettySize=auto;html=1;fontSize=12;startSize=8;endSize=8;strokeColor=default;" edge="1" parent="1" source="_YYLNtYZFIDilhd8sJEM-11">
          <mxGeometry relative="1" as="geometry">
            <mxPoint x="100" y="200" as="targetPoint" />
          </mxGeometry>
        </mxCell>
        <mxCell id="_YYLNtYZFIDilhd8sJEM-64" value="" style="edgeStyle=orthogonalEdgeStyle;rounded=0;orthogonalLoop=1;jettySize=auto;html=1;fontSize=12;startSize=8;endSize=8;" edge="1" parent="1" source="_YYLNtYZFIDilhd8sJEM-11">
          <mxGeometry relative="1" as="geometry">
            <mxPoint x="380" y="200" as="targetPoint" />
          </mxGeometry>
        </mxCell>
        <mxCell id="_YYLNtYZFIDilhd8sJEM-11" value="&lt;font style=&quot;vertical-align: inherit;&quot;&gt;&lt;font style=&quot;vertical-align: inherit;&quot;&gt;人参が好きか嫌いか&lt;/font&gt;&lt;/font&gt;" style="rhombus;whiteSpace=wrap;html=1;" vertex="1" parent="1">
          <mxGeometry x="145" y="140" width="180" height="40" as="geometry" />
        </mxCell>
        <mxCell id="_YYLNtYZFIDilhd8sJEM-68" value="" style="edgeStyle=elbowEdgeStyle;rounded=0;orthogonalLoop=1;jettySize=auto;html=1;fontSize=12;startSize=8;endSize=8;elbow=vertical;" edge="1" parent="1" source="_YYLNtYZFIDilhd8sJEM-12">
          <mxGeometry relative="1" as="geometry">
            <mxPoint x="240" y="280" as="targetPoint" />
          </mxGeometry>
        </mxCell>
        <mxCell id="_YYLNtYZFIDilhd8sJEM-12" value="調理法A" style="rounded=0;whiteSpace=wrap;html=1;" vertex="1" parent="1">
          <mxGeometry x="47.5" y="200" width="110" height="30" as="geometry" />
        </mxCell>
        <mxCell id="_YYLNtYZFIDilhd8sJEM-65" value="" style="edgeStyle=elbowEdgeStyle;rounded=0;orthogonalLoop=1;jettySize=auto;html=1;fontSize=12;startSize=8;endSize=8;elbow=vertical;entryX=0.538;entryY=-0.057;entryDx=0;entryDy=0;entryPerimeter=0;" edge="1" parent="1" source="_YYLNtYZFIDilhd8sJEM-13">
          <mxGeometry relative="1" as="geometry">
            <mxPoint x="239.99999999999997" y="280.00000000000006" as="targetPoint" />
            <mxPoint x="375.47" y="233.42" as="sourcePoint" />
            <Array as="points">
              <mxPoint x="310" y="257" />
            </Array>
          </mxGeometry>
        </mxCell>
        <mxCell id="_YYLNtYZFIDilhd8sJEM-13" value="調理法B" style="whiteSpace=wrap;html=1;rounded=0;" vertex="1" parent="1">
          <mxGeometry x="330" y="200" width="95" height="30" as="geometry" />
        </mxCell>
        <mxCell id="_YYLNtYZFIDilhd8sJEM-19" value="" style="edgeStyle=none;curved=1;rounded=0;orthogonalLoop=1;jettySize=auto;html=1;fontSize=12;startSize=8;endSize=8;" edge="1" parent="1" source="_YYLNtYZFIDilhd8sJEM-15" target="_YYLNtYZFIDilhd8sJEM-18">
          <mxGeometry relative="1" as="geometry" />
        </mxCell>
        <mxCell id="_YYLNtYZFIDilhd8sJEM-15" value="ほうれん草、ピーマン、ナス、ブロッコリーを適当な大きさに切る" style="whiteSpace=wrap;html=1;rounded=0;" vertex="1" parent="1">
          <mxGeometry x="142.5" y="280" width="185" height="60" as="geometry" />
        </mxCell>
        <mxCell id="_YYLNtYZFIDilhd8sJEM-21" value="" style="edgeStyle=none;curved=1;rounded=0;orthogonalLoop=1;jettySize=auto;html=1;fontSize=12;startSize=8;endSize=8;" edge="1" parent="1" source="_YYLNtYZFIDilhd8sJEM-18" target="_YYLNtYZFIDilhd8sJEM-20">
          <mxGeometry relative="1" as="geometry" />
        </mxCell>
        <mxCell id="_YYLNtYZFIDilhd8sJEM-18" value="具材を炒める&lt;div&gt;色合いは適当か&lt;/div&gt;" style="rhombus;whiteSpace=wrap;html=1;rounded=0;" vertex="1" parent="1">
          <mxGeometry x="157.5" y="380" width="155" height="50" as="geometry" />
        </mxCell>
        <mxCell id="_YYLNtYZFIDilhd8sJEM-20" value="具材を炒める" style="whiteSpace=wrap;html=1;rounded=0;" vertex="1" parent="1">
          <mxGeometry x="175" y="470" width="120" height="25" as="geometry" />
        </mxCell>
        <mxCell id="_YYLNtYZFIDilhd8sJEM-26" value="" style="edgeStyle=none;curved=1;rounded=0;orthogonalLoop=1;jettySize=auto;html=1;fontSize=12;startSize=8;endSize=8;" edge="1" parent="1" source="_YYLNtYZFIDilhd8sJEM-22" target="_YYLNtYZFIDilhd8sJEM-25">
          <mxGeometry relative="1" as="geometry" />
        </mxCell>
        <mxCell id="_YYLNtYZFIDilhd8sJEM-22" value="液量の水を入れる" style="whiteSpace=wrap;html=1;rounded=0;" vertex="1" parent="1">
          <mxGeometry x="172.5" y="520" width="125" height="30" as="geometry" />
        </mxCell>
        <mxCell id="_YYLNtYZFIDilhd8sJEM-24" style="edgeStyle=none;curved=1;rounded=0;orthogonalLoop=1;jettySize=auto;html=1;exitX=0.5;exitY=1;exitDx=0;exitDy=0;fontSize=12;startSize=8;endSize=8;" edge="1" parent="1" source="_YYLNtYZFIDilhd8sJEM-22" target="_YYLNtYZFIDilhd8sJEM-22">
          <mxGeometry relative="1" as="geometry" />
        </mxCell>
        <mxCell id="_YYLNtYZFIDilhd8sJEM-28" value="" style="edgeStyle=none;curved=1;rounded=0;orthogonalLoop=1;jettySize=auto;html=1;fontSize=12;startSize=8;endSize=8;" edge="1" parent="1" source="_YYLNtYZFIDilhd8sJEM-25" target="_YYLNtYZFIDilhd8sJEM-27">
          <mxGeometry relative="1" as="geometry" />
        </mxCell>
        <mxCell id="_YYLNtYZFIDilhd8sJEM-25" value="煮る&lt;div&gt;煮詰まっているか&lt;/div&gt;" style="rhombus;whiteSpace=wrap;html=1;rounded=0;" vertex="1" parent="1">
          <mxGeometry x="152.5" y="590" width="165" height="50" as="geometry" />
        </mxCell>
        <mxCell id="_YYLNtYZFIDilhd8sJEM-33" value="" style="edgeStyle=none;curved=1;rounded=0;orthogonalLoop=1;jettySize=auto;html=1;fontSize=12;startSize=8;endSize=8;" edge="1" parent="1" source="_YYLNtYZFIDilhd8sJEM-27" target="_YYLNtYZFIDilhd8sJEM-31">
          <mxGeometry relative="1" as="geometry" />
        </mxCell>
        <mxCell id="_YYLNtYZFIDilhd8sJEM-27" value="煮る" style="whiteSpace=wrap;html=1;rounded=0;" vertex="1" parent="1">
          <mxGeometry x="197.5" y="670" width="75" height="25" as="geometry" />
        </mxCell>
        <mxCell id="_YYLNtYZFIDilhd8sJEM-32" value="" style="edgeStyle=none;curved=1;rounded=0;orthogonalLoop=1;jettySize=auto;html=1;fontSize=12;startSize=8;endSize=8;" edge="1" parent="1" source="_YYLNtYZFIDilhd8sJEM-29" target="_YYLNtYZFIDilhd8sJEM-31">
          <mxGeometry relative="1" as="geometry" />
        </mxCell>
        <mxCell id="_YYLNtYZFIDilhd8sJEM-29" value="ルーを入れる" style="whiteSpace=wrap;html=1;rounded=0;" vertex="1" parent="1">
          <mxGeometry x="182.5" y="730" width="105" height="30" as="geometry" />
        </mxCell>
        <mxCell id="_YYLNtYZFIDilhd8sJEM-35" value="" style="edgeStyle=none;curved=1;rounded=0;orthogonalLoop=1;jettySize=auto;html=1;fontSize=12;startSize=8;endSize=8;" edge="1" parent="1" source="_YYLNtYZFIDilhd8sJEM-31" target="_YYLNtYZFIDilhd8sJEM-34">
          <mxGeometry relative="1" as="geometry" />
        </mxCell>
        <mxCell id="_YYLNtYZFIDilhd8sJEM-31" value="煮る&lt;div&gt;トロトロになったか&lt;/div&gt;" style="rhombus;whiteSpace=wrap;html=1;rounded=0;" vertex="1" parent="1">
          <mxGeometry x="135.94" y="800" width="198.12" height="50" as="geometry" />
        </mxCell>
        <mxCell id="_YYLNtYZFIDilhd8sJEM-34" value="煮る" style="whiteSpace=wrap;html=1;rounded=0;" vertex="1" parent="1">
          <mxGeometry x="196.25" y="880" width="77.5" height="30" as="geometry" />
        </mxCell>
        <mxCell id="_YYLNtYZFIDilhd8sJEM-43" value="" style="edgeStyle=none;curved=1;rounded=0;orthogonalLoop=1;jettySize=auto;html=1;fontSize=12;startSize=8;endSize=8;" edge="1" parent="1" source="_YYLNtYZFIDilhd8sJEM-36" target="_YYLNtYZFIDilhd8sJEM-42">
          <mxGeometry relative="1" as="geometry" />
        </mxCell>
        <mxCell id="_YYLNtYZFIDilhd8sJEM-36" value="辛いのが好きか" style="rhombus;whiteSpace=wrap;html=1;rounded=0;" vertex="1" parent="1">
          <mxGeometry x="168.13" y="940" width="133.75" height="38" as="geometry" />
        </mxCell>
        <mxCell id="_YYLNtYZFIDilhd8sJEM-42" value="カレー粉を追加" style="whiteSpace=wrap;html=1;rounded=0;" vertex="1" parent="1">
          <mxGeometry x="175" y="1000" width="120" height="30" as="geometry" />
        </mxCell>
        <mxCell id="_YYLNtYZFIDilhd8sJEM-44" value="完成" style="rounded=1;whiteSpace=wrap;html=1;" vertex="1" parent="1">
          <mxGeometry x="177.5" y="1060" width="120" height="30" as="geometry" />
        </mxCell>
        <mxCell id="_YYLNtYZFIDilhd8sJEM-61" value="no" style="text;html=1;align=center;verticalAlign=middle;resizable=0;points=[];autosize=1;strokeColor=none;fillColor=none;fontSize=16;" vertex="1" parent="1">
          <mxGeometry x="164" y="171" width="40" height="30" as="geometry" />
        </mxCell>
        <mxCell id="_YYLNtYZFIDilhd8sJEM-62" value="yes" style="text;html=1;align=center;verticalAlign=middle;resizable=0;points=[];autosize=1;strokeColor=none;fillColor=none;fontSize=16;" vertex="1" parent="1">
          <mxGeometry x="267.5" y="171" width="50" height="30" as="geometry" />
        </mxCell>
      </root>
    </mxGraphModel>
  </diagram>
</mxfile>
